<svg width="500" height="500" xmlns="http://www.w3.org/2000/svg" class="svg-inline--fa fa-caret-square-right fa-w-14">

 <g>
  <title>background</title>
  <rect fill="none" id="canvas_background" height="502" width="502" y="-1" x="-1"/>
 </g>
 <g>
  <title>Layer 1</title>
  <path id="svg_1" d="m53.357121,2.000026l391.285732,0c29.468719,0 53.357147,23.984376 53.357147,53.571427l0,392.857136c0,29.587036 -23.888428,53.571411 -53.357147,53.571411l-391.285732,0c-29.468704,0 -53.357141,-23.984375 -53.357141,-53.571411l0,-392.857136c0,-29.587051 23.888437,-53.571427 53.357141,-53.571427zm156.164135,396.780126l136.759903,-137.309113c5.209045,-5.229919 5.209045,-13.709854 0,-18.940872l-136.759903,-137.310257c-8.403732,-8.4375 -22.771255,-2.462051 -22.771255,9.469856l0,274.619408c0,11.931946 14.368622,17.907349 22.771255,9.470978z" fill="currentColor"/>
 </g>
</svg>